{
  "accessors": [
    {
      "bufferView": 2,
      "componentType": 5126,
      "count": 158,
      "max": [
        6.274819850921631,
        11.183598518371582,
        5.064531326293945
      ],
      "min": [
        -6.27441930770874,
        8.149094581604004,
        2.0983052253723145
      ],
      "type": "VEC3"
    },
    {
      "bufferView": 2,
      "byteOffset": 1896,
      "componentType": 5126,
      "count": 158,
      "max": [
        0.9704612493515015,
        0.9986957907676697,
        0.996733546257019
      ],
      "min": [
        -0.9704612493515015,
        -0.9986957907676697,
        -0.9751811623573303
      ],
      "type": "VEC3"
    },
    {
      "bufferView": 1,
      "componentType": 5126,
      "count": 158,
      "max": [
        0.9716890454292297,
        0.9998189806938171
      ],
      "min": [
        0.0001811003894545138,
        0.0001811003894545138
      ],
      "type": "VEC2"
    },
    {
      "bufferView": 0,
      "componentType": 5125,
      "count": 816,
      "type": "SCALAR"
    },
    {
      "bufferView": 2,
      "byteOffset": 3792,
      "componentType": 5126,
      "count": 1876,
      "max": [
        21.303937911987305,
        17.262928009033203,
        10.463762283325195
      ],
      "min": [
        -21.303537368774414,
        -15.79440975189209,
        -14.05319595336914
      ],
      "type": "VEC3"
    },
    {
      "bufferView": 2,
      "byteOffset": 26304,
      "componentType": 5126,
      "count": 1876,
      "max": [
        1.0,
        0.9999978542327881,
        1.0
      ],
      "min": [
        -1.0,
        -0.9995248317718506,
        -1.0
      ],
      "type": "VEC3"
    },
    {
      "bufferView": 1,
      "byteOffset": 1264,
      "componentType": 5126,
      "count": 1876,
      "max": [
        0.999427855014801,
        0.9826145172119141
      ],
      "min": [
        0.0005720717017538846,
        0.0005720717017538846
      ],
      "type": "VEC2"
    },
    {
      "bufferView": 0,
      "byteOffset": 3264,
      "componentType": 5125,
      "count": 5244,
      "type": "SCALAR"
    },
    {
      "bufferView": 3,
      "componentType": 5126,
      "count": 1,
      "max": [
        1.0,
        0.0,
        0.0,
        0.0,
        0.0,
        1.0,
        0.0,
        0.0,
        0.0,
        0.0,
        1.0,
        0.0,
        0.0,
        0.0,
        0.0,
        1.0
      ],
      "min": [
        1.0,
        0.0,
        0.0,
        0.0,
        0.0,
        1.0,
        0.0,
        0.0,
        0.0,
        0.0,
        1.0,
        0.0,
        0.0,
        0.0,
        0.0,
        1.0
      ],
      "type": "MAT4"
    }
  ],
  "asset": {
    "extras": {
      "author": "Uganda knuckles (https://sketchfab.com/dawasds)",
      "license": "CC-BY-4.0 (http://creativecommons.org/licenses/by/4.0/)",
      "source": "https://sketchfab.com/3d-models/uganda-knuckles-e795b13075d34c2fba9ff71fde6e5ba2",
      "title": "Uganda Knuckles"
    },
    "generator": "Sketchfab-12.66.0",
    "version": "2.0"
  },
  "bufferViews": [
    {
      "buffer": 0,
      "byteLength": 24240,
      "name": "floatBufferViews",
      "target": 34963
    },
    {
      "buffer": 0,
      "byteLength": 16272,
      "byteOffset": 24240,
      "byteStride": 8,
      "name": "floatBufferViews",
      "target": 34962
    },
    {
      "buffer": 0,
      "byteLength": 48816,
      "byteOffset": 40512,
      "byteStride": 12,
      "name": "floatBufferViews",
      "target": 34962
    },
    {
      "buffer": 0,
      "byteLength": 64,
      "byteOffset": 89328,
      "name": "floatBufferViews"
    }
  ],
  "buffers": [
    {
      "byteLength": 89392,
      "uri": "scene.bin"
    }
  ],
  "images": [
    {
      "uri": "textures/Material.001_baseColor.png"
    },
    {
      "uri": "textures/Material_baseColor.png"
    }
  ],
  "materials": [
    {
      "doubleSided": true,
      "name": "Material.001",
      "pbrMetallicRoughness": {
        "baseColorTexture": {
          "index": 0
        },
        "metallicFactor": 0.0,
        "roughnessFactor": 0.8048289689
      }
    },
    {
      "doubleSided": true,
      "name": "Material",
      "pbrMetallicRoughness": {
        "baseColorTexture": {
          "index": 1
        },
        "metallicFactor": 0.0,
        "roughnessFactor": 0.8239417257
      }
    }
  ],
  "meshes": [
    {
      "name": "0",
      "primitives": [
        {
          "attributes": {
            "NORMAL": 1,
            "POSITION": 0,
            "TEXCOORD_0": 2
          },
          "indices": 3,
          "material": 0,
          "mode": 4
        }
      ]
    },
    {
      "name": "1",
      "primitives": [
        {
          "attributes": {
            "NORMAL": 5,
            "POSITION": 4,
            "TEXCOORD_0": 6
          },
          "indices": 7,
          "material": 1,
          "mode": 4
        }
      ]
    }
  ],
  "nodes": [
    {
      "children": [
        1
      ],
      "matrix": [
        1.0,
        0.0,
        0.0,
        0.0,
        0.0,
        2.220446049250313e-16,
        -1.0,
        0.0,
        0.0,
        1.0,
        2.220446049250313e-16,
        0.0,
        0.0,
        0.0,
        0.0,
        1.0
      ],
      "name": "Sketchfab_model"
    },
    {
      "children": [
        2
      ],
      "matrix": [
        1.0,
        0.0,
        0.0,
        0.0,
        0.0,
        0.0,
        1.0,
        0.0,
        0.0,
        -1.0,
        0.0,
        0.0,
        0.0,
        0.0,
        0.0,
        1.0
      ],
      "name": "Knuckles.fbx"
    },
    {
      "children": [
        3,
        9,
        12
      ],
      "name": "RootNode"
    },
    {
      "children": [
        4
      ],
      "matrix": [
        100.0,
        0.0,
        0.0,
        0.0,
        0.0,
        -1.629206793918314e-05,
        -99.99999999999868,
        0.0,
        0.0,
        99.99999999999868,
        -1.629206793918314e-05,
        0.0,
        0.0,
        92.1597900390625,
        -38.757904052734375,
        1.0
      ],
      "name": "Armature"
    },
    {
      "children": [
        5,
        6
      ],
      "name": "Object_4"
    },
    {
      "name": "_rootJoint"
    },
    {
      "children": [
        7,
        8
      ],
      "matrix": [
        13.932858407497406,
        0.0,
        0.0,
        0.0,
        0.0,
        13.93285984865193,
        -1.2809974236915854e-06,
        0.0,
        0.0,
        1.2809974312253995e-06,
        13.932859930593995,
        0.0,
        -0.0027909112759516574,
        221.24059312702957,
        0.6208398225899145,
        1.0
      ],
      "name": "Object_6"
    },
    {
      "mesh": 0,
      "name": "0"
    },
    {
      "mesh": 1,
      "name": "1"
    },
    {
      "children": [
        10
      ],
      "matrix": [
        -41.33245800319762,
        72.85001718163046,
        -54.63060417064825,
        0.0,
        -43.9542954599816,
        -68.50456186733918,
        -58.095997400686194,
        0.0,
        -79.74740012082239,
        -6.558437648518378e-06,
        60.335331058753724,
        0.0,
        -599.5887451171875,
        -376.7727355957031,
        -546.5508422851563,
        1.0
      ],
      "name": "Hemi"
    },
    {
      "children": [
        11
      ],
      "matrix": [
        1.0,
        0.0,
        0.0,
        0.0,
        0.0,
        2.220446049250313e-16,
        1.0,
        0.0,
        0.0,
        -1.0,
        2.220446049250313e-16,
        0.0,
        0.0,
        0.0,
        0.0,
        1.0
      ],
      "name": "Object_10"
    },
    {
      "name": "Object_11"
    },
    {
      "children": [
        13
      ],
      "matrix": [
        43.530070025280786,
        -77.57095223892283,
        45.69332962633501,
        0.0,
        53.505346027335186,
        63.10901178711881,
        56.16431765586071,
        0.0,
        -72.40380480395541,
        7.323164108452573e-06,
        68.9760034353301,
        0.0,
        741.07177734375,
        1412.060302734375,
        816.1729736328125,
        1.0
      ],
      "name": "Sun"
    },
    {
      "children": [
        14
      ],
      "matrix": [
        1.0,
        0.0,
        0.0,
        0.0,
        0.0,
        2.220446049250313e-16,
        1.0,
        0.0,
        0.0,
        -1.0,
        2.220446049250313e-16,
        0.0,
        0.0,
        0.0,
        0.0,
        1.0
      ],
      "name": "Object_13"
    },
    {
      "name": "Object_14"
    }
  ],
  "samplers": [
    {
      "magFilter": 9729,
      "minFilter": 9987,
      "wrapS": 10497,
      "wrapT": 10497
    }
  ],
  "scene": 0,
  "scenes": [
    {
      "name": "Sketchfab_Scene",
      "nodes": [
        0
      ]
    }
  ],
  "skins": [
    {
      "inverseBindMatrices": 8,
      "joints": [
        5
      ],
      "skeleton": 5
    }
  ],
  "textures": [
    {
      "sampler": 0,
      "source": 0
    },
    {
      "sampler": 0,
      "source": 1
    }
  ]
}
